<svg version="1.1" id="Layer_1" xmlns="http://www.w3.org/2000/svg" xmlns:xlink="http://www.w3.org/1999/xlink" x="0px" y="0px"
	 width="100%" viewBox="0 0 200 200" enable-background="new 0 0 200 200" xml:space="preserve">
<path fill="#4A4A4A" opacity="1.000000" stroke="none" 
	d="
M87.000000,1.000000 
	C95.687561,1.000000 104.375130,1.000000 113.704636,1.357324 
	C114.830025,1.828732 115.308975,1.968857 115.797554,2.053200 
	C159.717621,9.635173 191.098480,40.338161 199.624756,84.027679 
	C199.890518,85.389381 200.533096,86.677551 201.000000,88.000000 
	C201.000000,97.020897 201.000000,106.041786 200.625885,115.640778 
	C199.917191,117.327179 199.490143,118.416771 199.261429,119.546516 
	C190.840439,161.143494 160.306305,191.350189 118.465569,199.505005 
	C116.937950,199.802734 115.486794,200.492783 114.000000,201.000000 
	C105.312439,201.000000 96.624870,201.000000 87.315956,200.638992 
	C85.734589,200.033829 84.780724,199.761627 83.813675,199.549545 
	C39.828846,189.902939 12.713545,163.223312 2.662185,119.263542 
	C2.398279,118.109344 1.566795,117.084938 1.000000,116.000000 
	C1.000000,106.645775 1.000000,97.291542 1.360543,87.315506 
	C2.003042,85.567505 2.329879,84.450417 2.560476,83.313812 
	C11.157391,40.939934 40.712910,11.340794 83.105682,2.596755 
	C84.456123,2.318211 85.704201,1.543441 87.000000,1.000000 
M118.407867,50.917736 
	C119.405449,50.858425 120.403603,50.807510 121.400490,50.738182 
	C124.043869,50.554348 126.742073,50.600231 126.908119,54.097450 
	C127.069405,57.494534 124.466698,57.955009 121.799179,58.169285 
	C119.190834,58.378803 116.592941,58.718292 113.488968,59.055157 
	C124.219513,90.968132 134.771240,122.349281 145.322968,153.730438 
	C151.096298,137.964828 155.833679,122.244972 160.283356,106.444107 
	C163.111572,96.401024 161.798508,86.593231 157.151672,77.321960 
	C154.619949,72.270683 151.206604,67.628899 149.000183,62.457153 
	C147.221527,58.288139 145.624435,53.566730 145.771957,49.151379 
	C146.064346,40.399788 151.870392,35.726475 161.180328,34.052090 
	C136.818542,13.930279 110.223724,6.747149 80.278824,13.613475 
	C57.511288,18.834042 39.869133,31.637146 25.746792,51.752541 
	C29.037455,51.752541 30.831877,51.818516 32.620079,51.741043 
	C40.107246,51.416672 47.591808,50.878399 55.079166,50.846195 
	C56.524529,50.839977 57.978142,52.752865 59.427948,53.780464 
	C58.158970,55.196686 57.128208,57.378765 55.569523,57.863590 
	C52.667545,58.766247 49.458176,58.680660 45.998890,59.046371 
	C56.852867,91.312225 67.510544,122.994522 78.651337,156.113007 
	C84.260696,139.307526 88.989670,123.886032 94.614693,108.798615 
	C97.574028,100.861061 98.176178,93.725693 94.319847,85.966362 
	C91.597183,80.488083 89.686813,74.539986 87.988968,68.636223 
	C86.112122,62.109982 83.703400,56.968689 75.443008,57.862839 
	C74.318031,57.984615 72.917740,55.562916 71.644920,54.318871 
	C73.106812,53.099438 74.488411,51.756332 76.073784,50.727100 
	C76.634979,50.362766 77.692825,50.805267 78.524254,50.809105 
	C91.500793,50.869019 104.477402,50.917400 118.407867,50.917736 
M125.295654,171.223190 
	C117.872383,150.881485 110.449120,130.539780 102.568611,108.945137 
	C93.303337,135.887100 84.521278,161.423935 75.654472,187.207214 
	C94.459152,192.490829 112.353577,192.100754 130.555634,185.823944 
	C128.816727,180.947159 127.210945,176.443665 125.295654,171.223190 
M53.133251,158.367462 
	C41.869434,127.491676 30.605616,96.615891 19.118372,65.127655 
	C-1.598767,108.469261 20.302670,163.194351 61.347294,180.933319 
	C58.599419,173.363876 56.009182,166.228668 53.133251,158.367462 
M165.777893,122.258591 
	C159.474380,140.438614 153.170853,158.618637 146.867340,176.798676 
	C147.391846,177.027222 147.916367,177.255768 148.440887,177.484329 
	C176.529419,158.646454 191.154922,132.394028 190.846634,98.091934 
	C190.710709,82.967552 184.968414,64.337326 180.332489,62.415482 
	C180.008316,68.176842 180.669128,74.233223 179.164886,79.693108 
	C175.286743,93.769432 170.450989,107.581917 165.777893,122.258591 
z"/>
<path fill="#FDFDFD" opacity="1.000000" stroke="none" 
	d="
M201.000000,87.531342 
	C200.533096,86.677551 199.890518,85.389381 199.624756,84.027679 
	C191.098480,40.338161 159.717621,9.635173 115.797554,2.053200 
	C115.308975,1.968857 114.830025,1.828732 114.173294,1.357324 
	C142.926910,1.000000 171.853806,1.000000 201.000000,1.000000 
	C201.000000,29.687189 201.000000,58.374935 201.000000,87.531342 
z"/>
<path fill="#FDFDFD" opacity="1.000000" stroke="none" 
	d="
M86.531342,1.000000 
	C85.704201,1.543441 84.456123,2.318211 83.105682,2.596755 
	C40.712910,11.340794 11.157391,40.939934 2.560476,83.313812 
	C2.329879,84.450417 2.003042,85.567505 1.360543,86.846848 
	C1.000000,58.406425 1.000000,29.812853 1.000000,1.000000 
	C29.353851,1.000000 57.708267,1.000000 86.531342,1.000000 
z"/>
<path fill="#FDFDFD" opacity="1.000000" stroke="none" 
	d="
M114.468658,201.000000 
	C115.486794,200.492783 116.937950,199.802734 118.465569,199.505005 
	C160.306305,191.350189 190.840439,161.143494 199.261429,119.546516 
	C199.490143,118.416771 199.917191,117.327179 200.625885,116.109436 
	C201.000000,144.261078 201.000000,172.522171 201.000000,201.000000 
	C172.312805,201.000000 143.625061,201.000000 114.468658,201.000000 
z"/>
<path fill="#FDFDFD" opacity="1.000000" stroke="none" 
	d="
M1.000000,116.468658 
	C1.566795,117.084938 2.398279,118.109344 2.662185,119.263542 
	C12.713545,163.223312 39.828846,189.902939 83.813675,199.549545 
	C84.780724,199.761627 85.734589,200.033829 86.847305,200.638992 
	C58.406857,201.000000 29.813711,201.000000 1.000000,201.000000 
	C1.000000,172.979492 1.000000,144.958405 1.000000,116.468658 
z"/>
<path fill="#FCFCFC" opacity="1.000000" stroke="none" 
	d="
M117.930923,50.943089 
	C104.477402,50.917400 91.500793,50.869019 78.524254,50.809105 
	C77.692825,50.805267 76.634979,50.362766 76.073784,50.727100 
	C74.488411,51.756332 73.106812,53.099438 71.644920,54.318871 
	C72.917740,55.562916 74.318031,57.984615 75.443008,57.862839 
	C83.703400,56.968689 86.112122,62.109982 87.988968,68.636223 
	C89.686813,74.539986 91.597183,80.488083 94.319847,85.966362 
	C98.176178,93.725693 97.574028,100.861061 94.614693,108.798615 
	C88.989670,123.886032 84.260696,139.307526 78.651337,156.113007 
	C67.510544,122.994522 56.852867,91.312225 45.998890,59.046371 
	C49.458176,58.680660 52.667545,58.766247 55.569523,57.863590 
	C57.128208,57.378765 58.158970,55.196686 59.427948,53.780464 
	C57.978142,52.752865 56.524529,50.839977 55.079166,50.846195 
	C47.591808,50.878399 40.107246,51.416672 32.620079,51.741043 
	C30.831877,51.818516 29.037455,51.752541 25.746792,51.752541 
	C39.869133,31.637146 57.511288,18.834042 80.278824,13.613475 
	C110.223724,6.747149 136.818542,13.930279 161.180328,34.052090 
	C151.870392,35.726475 146.064346,40.399788 145.771957,49.151379 
	C145.624435,53.566730 147.221527,58.288139 149.000183,62.457153 
	C151.206604,67.628899 154.619949,72.270683 157.151672,77.321960 
	C161.798508,86.593231 163.111572,96.401024 160.283356,106.444107 
	C155.833679,122.244972 151.096298,137.964828 145.322968,153.730438 
	C134.771240,122.349281 124.219513,90.968132 113.488968,59.055157 
	C116.592941,58.718292 119.190834,58.378803 121.799179,58.169285 
	C124.466698,57.955009 127.069405,57.494534 126.908119,54.097450 
	C126.742073,50.600231 124.043869,50.554348 121.400490,50.738182 
	C120.403603,50.807510 119.405449,50.858425 117.930923,50.943089 
z"/>
<path fill="#FCFCFC" opacity="1.000000" stroke="none" 
	d="
M125.450409,171.581696 
	C127.210945,176.443665 128.816727,180.947159 130.555634,185.823944 
	C112.353577,192.100754 94.459152,192.490829 75.654472,187.207214 
	C84.521278,161.423935 93.303337,135.887100 102.568611,108.945137 
	C110.449120,130.539780 117.872383,150.881485 125.450409,171.581696 
z"/>
<path fill="#FBFBFB" opacity="1.000000" stroke="none" 
	d="
M53.276096,158.730469 
	C56.009182,166.228668 58.599419,173.363876 61.347294,180.933319 
	C20.302670,163.194351 -1.598767,108.469261 19.118372,65.127655 
	C30.605616,96.615891 41.869434,127.491676 53.276096,158.730469 
z"/>
<path fill="#FAFAFA" opacity="1.000000" stroke="none" 
	d="
M165.887848,121.879196 
	C170.450989,107.581917 175.286743,93.769432 179.164886,79.693108 
	C180.669128,74.233223 180.008316,68.176842 180.332489,62.415482 
	C184.968414,64.337326 190.710709,82.967552 190.846634,98.091934 
	C191.154922,132.394028 176.529419,158.646454 148.440887,177.484329 
	C147.916367,177.255768 147.391846,177.027222 146.867340,176.798676 
	C153.170853,158.618637 159.474380,140.438614 165.887848,121.879196 
z"/>
</svg>