<?xml version="1.0" encoding="UTF-8"?>
<svg xmlns="http://www.w3.org/2000/svg" xmlns:xlink="http://www.w3.org/1999/xlink" width="24px" height="24px" viewBox="0 0 24 24" version="1.1">
<g id="surface1">
<path style=" stroke:none;fill-rule:nonzero;fill:rgb(29.019608%,29.019608%,29.019608%);fill-opacity:1;" d="M 10.441406 0.121094 C 11.484375 0.121094 12.523438 0.121094 13.644531 0.164062 C 13.78125 0.21875 13.835938 0.234375 13.894531 0.246094 C 19.167969 1.15625 22.933594 4.839844 23.953125 10.082031 C 23.988281 10.246094 24.0625 10.402344 24.121094 10.558594 C 24.121094 11.640625 24.121094 12.726562 24.074219 13.875 C 23.988281 14.078125 23.9375 14.210938 23.910156 14.34375 C 22.902344 19.335938 19.238281 22.960938 14.214844 23.941406 C 14.03125 23.976562 13.859375 24.058594 13.679688 24.121094 C 12.636719 24.121094 11.59375 24.121094 10.476562 24.078125 C 10.289062 24.003906 10.171875 23.972656 10.058594 23.945312 C 4.78125 22.789062 1.527344 19.585938 0.320312 14.3125 C 0.289062 14.171875 0.1875 14.050781 0.121094 13.921875 C 0.121094 12.796875 0.121094 11.675781 0.164062 10.476562 C 0.242188 10.269531 0.28125 10.132812 0.308594 9.996094 C 1.339844 4.914062 4.886719 1.359375 9.972656 0.3125 C 10.132812 0.277344 10.285156 0.183594 10.441406 0.121094 M 14.207031 6.109375 C 14.328125 6.101562 14.449219 6.097656 14.566406 6.089844 C 14.886719 6.066406 15.210938 6.070312 15.230469 6.492188 C 15.25 6.898438 14.9375 6.953125 14.617188 6.980469 C 14.304688 7.003906 13.992188 7.046875 13.617188 7.085938 C 14.90625 10.917969 16.171875 14.683594 17.4375 18.449219 C 18.132812 16.554688 18.699219 14.667969 19.234375 12.773438 C 19.574219 11.566406 19.414062 10.390625 18.859375 9.277344 C 18.554688 8.671875 18.144531 8.117188 17.878906 7.496094 C 17.667969 6.996094 17.476562 6.429688 17.492188 5.898438 C 17.527344 4.847656 18.222656 4.289062 19.339844 4.085938 C 16.417969 1.671875 13.226562 0.808594 9.632812 1.632812 C 6.902344 2.261719 4.785156 3.796875 3.089844 6.210938 C 3.484375 6.210938 3.699219 6.21875 3.914062 6.207031 C 4.8125 6.171875 5.710938 6.105469 6.609375 6.101562 C 6.78125 6.101562 6.957031 6.332031 7.132812 6.453125 C 6.980469 6.625 6.855469 6.886719 6.667969 6.945312 C 6.320312 7.050781 5.933594 7.042969 5.519531 7.085938 C 6.824219 10.957031 8.101562 14.757812 9.4375 18.734375 C 10.109375 16.71875 10.679688 14.867188 11.355469 13.054688 C 11.707031 12.101562 11.78125 11.246094 11.320312 10.316406 C 10.992188 9.660156 10.761719 8.945312 10.558594 8.238281 C 10.332031 7.453125 10.042969 6.835938 9.054688 6.945312 C 8.917969 6.957031 8.75 6.667969 8.597656 6.519531 C 8.773438 6.371094 8.9375 6.210938 9.128906 6.085938 C 9.195312 6.042969 9.324219 6.097656 9.421875 6.097656 C 10.980469 6.105469 12.539062 6.109375 14.207031 6.109375 M 15.035156 20.546875 C 14.144531 18.105469 13.253906 15.664062 12.308594 13.074219 C 11.195312 16.304688 10.140625 19.371094 9.078125 22.464844 C 11.335938 23.097656 13.484375 23.050781 15.667969 22.300781 C 15.457031 21.714844 15.265625 21.171875 15.035156 20.546875 M 6.375 19.003906 C 5.023438 15.300781 3.671875 11.59375 2.292969 7.816406 C -0.191406 13.015625 2.4375 19.582031 7.363281 21.710938 C 7.03125 20.804688 6.722656 19.949219 6.375 19.003906 M 19.894531 14.671875 C 19.136719 16.851562 18.378906 19.035156 17.625 21.214844 C 17.6875 21.242188 17.75 21.269531 17.8125 21.296875 C 21.183594 19.039062 22.9375 15.886719 22.902344 11.769531 C 22.886719 9.957031 22.195312 7.71875 21.640625 7.488281 C 21.601562 8.179688 21.679688 8.90625 21.5 9.5625 C 21.035156 11.253906 20.453125 12.910156 19.894531 14.671875 Z M 19.894531 14.671875 "/>
<path style=" stroke:none;fill-rule:nonzero;fill:rgb(99.215686%,99.215686%,99.215686%);fill-opacity:1;" d="M 24.121094 10.503906 C 24.0625 10.402344 23.988281 10.246094 23.953125 10.082031 C 22.933594 4.839844 19.167969 1.15625 13.894531 0.246094 C 13.835938 0.234375 13.78125 0.21875 13.699219 0.164062 C 17.152344 0.121094 20.621094 0.121094 24.121094 0.121094 C 24.121094 3.5625 24.121094 7.003906 24.121094 10.503906 Z M 24.121094 10.503906 "/>
<path style=" stroke:none;fill-rule:nonzero;fill:rgb(99.215686%,99.215686%,99.215686%);fill-opacity:1;" d="M 10.382812 0.121094 C 10.285156 0.183594 10.132812 0.277344 9.972656 0.3125 C 4.886719 1.359375 1.339844 4.914062 0.308594 9.996094 C 0.28125 10.132812 0.242188 10.269531 0.164062 10.421875 C 0.121094 7.007812 0.121094 3.578125 0.121094 0.121094 C 3.523438 0.121094 6.925781 0.121094 10.382812 0.121094 Z M 10.382812 0.121094 "/>
<path style=" stroke:none;fill-rule:nonzero;fill:rgb(99.215686%,99.215686%,99.215686%);fill-opacity:1;" d="M 13.734375 24.121094 C 13.859375 24.058594 14.03125 23.976562 14.214844 23.941406 C 19.238281 22.960938 22.902344 19.335938 23.910156 14.34375 C 23.9375 14.210938 23.988281 14.078125 24.074219 13.933594 C 24.121094 17.3125 24.121094 20.703125 24.121094 24.121094 C 20.675781 24.121094 17.234375 24.121094 13.734375 24.121094 Z M 13.734375 24.121094 "/>
<path style=" stroke:none;fill-rule:nonzero;fill:rgb(99.215686%,99.215686%,99.215686%);fill-opacity:1;" d="M 0.121094 13.976562 C 0.1875 14.050781 0.289062 14.171875 0.320312 14.3125 C 1.527344 19.585938 4.78125 22.789062 10.058594 23.945312 C 10.171875 23.972656 10.289062 24.003906 10.421875 24.078125 C 7.007812 24.121094 3.578125 24.121094 0.121094 24.121094 C 0.121094 20.757812 0.121094 17.394531 0.121094 13.976562 Z M 0.121094 13.976562 "/>
<path style=" stroke:none;fill-rule:nonzero;fill:rgb(98.823529%,98.823529%,98.823529%);fill-opacity:1;" d="M 14.152344 6.113281 C 12.539062 6.109375 10.980469 6.105469 9.421875 6.097656 C 9.324219 6.097656 9.195312 6.042969 9.128906 6.085938 C 8.9375 6.210938 8.773438 6.371094 8.597656 6.519531 C 8.75 6.667969 8.917969 6.957031 9.054688 6.945312 C 10.042969 6.835938 10.332031 7.453125 10.558594 8.238281 C 10.761719 8.945312 10.992188 9.660156 11.320312 10.316406 C 11.78125 11.246094 11.707031 12.101562 11.355469 13.054688 C 10.679688 14.867188 10.109375 16.71875 9.4375 18.734375 C 8.101562 14.757812 6.824219 10.957031 5.519531 7.085938 C 5.933594 7.042969 6.320312 7.050781 6.667969 6.945312 C 6.855469 6.886719 6.980469 6.625 7.132812 6.453125 C 6.957031 6.332031 6.78125 6.101562 6.609375 6.101562 C 5.710938 6.105469 4.8125 6.171875 3.914062 6.207031 C 3.699219 6.21875 3.484375 6.210938 3.089844 6.210938 C 4.785156 3.796875 6.902344 2.261719 9.632812 1.632812 C 13.226562 0.808594 16.417969 1.671875 19.339844 4.085938 C 18.222656 4.289062 17.527344 4.847656 17.492188 5.898438 C 17.476562 6.429688 17.667969 6.996094 17.878906 7.496094 C 18.144531 8.117188 18.554688 8.671875 18.859375 9.277344 C 19.414062 10.390625 19.574219 11.566406 19.234375 12.773438 C 18.699219 14.667969 18.132812 16.554688 17.4375 18.449219 C 16.171875 14.683594 14.90625 10.917969 13.617188 7.085938 C 13.992188 7.046875 14.304688 7.003906 14.617188 6.980469 C 14.9375 6.953125 15.25 6.898438 15.230469 6.492188 C 15.210938 6.070312 14.886719 6.066406 14.566406 6.089844 C 14.449219 6.097656 14.328125 6.101562 14.152344 6.113281 Z M 14.152344 6.113281 "/>
<path style=" stroke:none;fill-rule:nonzero;fill:rgb(98.823529%,98.823529%,98.823529%);fill-opacity:1;" d="M 15.054688 20.589844 C 15.265625 21.171875 15.457031 21.714844 15.667969 22.300781 C 13.484375 23.050781 11.335938 23.097656 9.078125 22.464844 C 10.140625 19.371094 11.195312 16.304688 12.308594 13.074219 C 13.253906 15.664062 14.144531 18.105469 15.054688 20.589844 Z M 15.054688 20.589844 "/>
<path style=" stroke:none;fill-rule:nonzero;fill:rgb(98.431373%,98.431373%,98.431373%);fill-opacity:1;" d="M 6.394531 19.046875 C 6.722656 19.949219 7.03125 20.804688 7.363281 21.710938 C 2.4375 19.582031 -0.191406 13.015625 2.292969 7.816406 C 3.671875 11.59375 5.023438 15.300781 6.394531 19.046875 Z M 6.394531 19.046875 "/>
<path style=" stroke:none;fill-rule:nonzero;fill:rgb(98.039216%,98.039216%,98.039216%);fill-opacity:1;" d="M 19.90625 14.625 C 20.453125 12.910156 21.035156 11.253906 21.5 9.5625 C 21.679688 8.90625 21.601562 8.179688 21.640625 7.488281 C 22.195312 7.71875 22.886719 9.957031 22.902344 11.769531 C 22.9375 15.886719 21.183594 19.039062 17.8125 21.296875 C 17.75 21.269531 17.6875 21.242188 17.625 21.214844 C 18.378906 19.035156 19.136719 16.851562 19.90625 14.625 Z M 19.90625 14.625 "/>
</g>
</svg>
